# xmcd
#
# Track frame offsets:
#	150
#	15417
#	29250
#	48767
#	64431
#	79940
#	91217
#	112081
#	122660
#	142016
#	152937
#	171778
#	184132
#	197541
#	210890
#	224630
#
# Disc length: 3192 seconds
#
# Revision: 4
# Processed by: cddbd v1.5.2PL0 Copyright (c) Steve Scherf et al.
# Submitted via: audiograbber 1.83.01
#
DISCID=e00c7610
DTITLE=Virgis Stakenas - Country Mama [CD1]
DYEAR=2001
DGENRE=Country
TTITLE0=Snaudzia Malunas Prie Kelio
TTITLE1=Prima Balerina
TTITLE2=Mano Ranca
TTITLE3=Kaitra
TTITLE4=Zinau
TTITLE5=Mano Miela
TTITLE6=Pelenu Spalvos Akiu Moteris
TTITLE7=Mano Senelis Anupras
TTITLE8=Seni Draugai
TTITLE9=Kelias Bega Greit
TTITLE10=Nepripratau
TTITLE11=Broliai
TTITLE12=Ateisiu
TTITLE13=Liusilei
TTITLE14=Nelaukiamas
TTITLE15=Uz Musu Jaunas Dieneles
EXTD=CD1 of 2, not Compilation CD
EXTT0=
EXTT1=
EXTT2=
EXTT3=
EXTT4=
EXTT5=
EXTT6=
EXTT7=
EXTT8=
EXTT9=
EXTT10=
EXTT11=
EXTT12=
EXTT13=
EXTT14=
EXTT15=
PLAYORDER=
